

<svg class="bk-icon" style="fill: #3A84FF;" viewBox="0 0 1024 1024" version="1.1" xmlns="http://www.w3.org/2000/svg">







<g>
	<g>
		<path fill="#3A84FF" d="M511.7,896.1c-21.7,0-41.3-9.9-54.2-26.1h-72.1c8.2,23.2,22.6,43.9,41.6,59.6c23.8,19.7,53.9,30.5,84.8,30.5
			s61-10.8,84.8-30.5c18.9-15.6,33.3-36.4,41.5-59.6H566C552.9,886.1,533.4,896.1,511.7,896.1z"></path>
		<path fill="#3A84FF" d="M860.6,785.7L800,664.4V448c0-76.9-30-149.3-84.4-203.6c-39-39-87.2-65.4-139.6-77.3V128
			c0-35.3-28.7-64-64-64l0,0c-35.3,0-64,28.7-64,64v39.1c-52.5,11.9-100.7,38.3-139.6,77.3C254,298.7,224,371.1,224,448v216.4
			l-60.6,121.2c-5,9.9-4.4,21.7,1.4,31.1c5.8,9.4,16.1,15.2,27.2,15.2h640c11.1,0,21.4-5.7,27.2-15.2
			C865.1,807.4,865.6,795.6,860.6,785.7z M243.8,768l40.8-81.7c2.2-4.4,3.4-9.3,3.4-14.3V448c0-123.5,100.5-224,224-224
			s224,100.5,224,224v224c0,5,1.2,9.9,3.4,14.3l40.8,81.7H243.8z"></path>
	</g>
</g>













































































</svg>
